<?xml version="1.0" encoding="utf-8"?>
<!-- Generator: Adobe Illustrator 16.0.0, SVG Export Plug-In . SVG Version: 6.00 Build 0)  -->
<!DOCTYPE svg PUBLIC "-//W3C//DTD SVG 1.1//EN" "http://www.w3.org/Graphics/SVG/1.1/DTD/svg11.dtd">
<svg version="1.1" id="Layer_1" xmlns="http://www.w3.org/2000/svg" xmlns:xlink="http://www.w3.org/1999/xlink" x="0px" y="0px"
	 width="300px" height="100px" viewBox="0 0 300 100" enable-background="new 0 0 300 100" xml:space="preserve">
<g>
	<path fill="#FFFFFF" d="M63.857,44.544H40.308c-0.607,0-1.1,0.493-1.1,1.101v11.513c0,0.607,0.493,1.103,1.1,1.103h9.187v14.304
		c0,0-2.063,0.703-7.765,0.703c-6.728,0-16.127-2.458-16.127-23.125c0-20.672,9.787-23.393,18.975-23.393
		c7.954,0,11.38,1.4,13.56,2.076c0.685,0.209,1.318-0.473,1.318-1.081l2.627-11.124c0-0.285-0.096-0.627-0.42-0.859
		c-0.886-0.632-6.288-3.655-19.934-3.655c-15.721,0-31.847,6.688-31.847,38.841c0,32.153,18.463,36.944,34.021,36.944
		c12.882,0,20.697-5.505,20.697-5.505c0.322-0.178,0.356-0.628,0.356-0.834V45.645C64.957,45.037,64.465,44.544,63.857,44.544z"/>
	<path fill="#FFFFFF" d="M185.218,15.96c0-0.613-0.486-1.107-1.094-1.107h-13.259c-0.606,0-1.099,0.494-1.099,1.107
		c0,0.002,0.004,25.624,0.004,25.624h-20.668V15.96c0-0.613-0.488-1.107-1.094-1.107H134.75c-0.604,0-1.095,0.494-1.095,1.107
		v69.382c0,0.612,0.492,1.11,1.095,1.11h13.259c0.606,0,1.094-0.498,1.094-1.11V55.665h20.668c0,0-0.036,29.676-0.036,29.678
		c0,0.612,0.491,1.11,1.098,1.11h13.291c0.607,0,1.093-0.498,1.095-1.11V15.96z"/>
	<g>
		<g>
			<path fill="#FFFFFF" d="M88.878,25.064c0-4.774-3.828-8.632-8.55-8.632c-4.718,0-8.548,3.858-8.548,8.632
				c0,4.77,3.831,8.639,8.548,8.639C85.05,33.703,88.878,29.834,88.878,25.064z"/>
			<path fill="#FFFFFF" d="M87.93,70.707c0-1.778,0-32.027,0-32.027c0-0.608-0.49-1.105-1.097-1.105H73.615
				c-0.606,0-1.148,0.625-1.148,1.233c0,0,0,38.539,0,45.886c0,1.349,0.84,1.75,1.927,1.75c0,0,5.642,0,11.909,0
				c1.307,0,1.627-0.643,1.627-1.771C87.93,82.212,87.93,72.577,87.93,70.707z"/>
		</g>
	</g>
	<path fill="#FFFFFF" d="M235.608,37.678h-13.157c-0.604,0-1.095,0.498-1.095,1.11v34.02c0,0-3.343,2.445-8.088,2.445
		c-4.744,0-6.003-2.152-6.003-6.798c0-4.651,0-29.667,0-29.667c0-0.612-0.49-1.11-1.094-1.11h-13.354
		c-0.603,0-1.097,0.498-1.097,1.11c0,0,0,18.117,0,31.914c0,13.799,7.69,17.175,18.27,17.175c8.68,0,15.677-4.795,15.677-4.795
		s0.334,2.526,0.484,2.826c0.15,0.299,0.543,0.601,0.968,0.601l8.495-0.038c0.603,0,1.097-0.497,1.097-1.107l-0.005-46.575
		C236.706,38.176,236.215,37.678,235.608,37.678z"/>
	<path fill="#FFFFFF" d="M271.57,36.12c-7.473,0-12.556,3.334-12.556,3.334V15.96c0-0.613-0.49-1.107-1.094-1.107h-13.297
		c-0.605,0-1.096,0.494-1.096,1.107v69.382c0,0.612,0.49,1.11,1.097,1.11c0.002,0,9.223,0,9.226,0c0.416,0,0.73-0.215,0.963-0.589
		c0.229-0.373,0.56-3.2,0.56-3.2s5.438,5.153,15.73,5.153c12.084,0,19.014-6.129,19.014-27.516
		C290.117,38.915,279.049,36.12,271.57,36.12z M266.381,75.212c-4.563-0.139-7.659-2.21-7.659-2.21V51.03
		c0,0,3.054-1.872,6.801-2.206c4.738-0.425,9.304,1.006,9.304,12.309C274.826,73.052,272.766,75.404,266.381,75.212z"/>
	<path fill="#FFFFFF" d="M126.038,37.568h-9.946c0,0-0.015-13.137-0.015-13.14c0-0.498-0.257-0.746-0.832-0.746h-13.554
		c-0.527,0-0.81,0.232-0.81,0.739v13.578c0,0-6.793,1.64-7.252,1.772c-0.457,0.133-0.793,0.555-0.793,1.058v8.533
		c0,0.613,0.49,1.109,1.096,1.109h6.95c0,0,0,8.924,0,20.527c0,15.246,10.695,16.744,17.911,16.744c3.298,0,7.242-1.06,7.894-1.299
		c0.394-0.146,0.623-0.554,0.623-0.996l0.011-9.387c0-0.611-0.517-1.107-1.099-1.107c-0.58,0-2.062,0.236-3.589,0.236
		c-4.885,0-6.541-2.271-6.541-5.212c0-2.938-0.001-19.507-0.001-19.507h9.947c0.606,0,1.097-0.496,1.097-1.109V38.674
		C127.135,38.062,126.644,37.568,126.038,37.568z"/>
</g>
</svg>
